<mxfile host="app.diagrams.net" modified="2023-08-25T19:39:38.781Z" agent="Mozilla/5.0 (Windows NT 10.0; Win64; x64) AppleWebKit/537.36 (KHTML, like Gecko) Chrome/116.0.0.0 Safari/537.36 Edg/116.0.1938.54" etag="3nuBj1LNLt2v4zF0NLR1" version="21.6.9" type="github">
  <diagram name="PÃ¡gina-1" id="o1jjUE61G6U9-v0W-IKj">
    <mxGraphModel dx="1075" dy="654" grid="1" gridSize="10" guides="1" tooltips="1" connect="1" arrows="1" fold="1" page="1" pageScale="1" pageWidth="827" pageHeight="1169" math="0" shadow="0">
      <root>
        <mxCell id="0" />
        <mxCell id="1" parent="0" />
        <mxCell id="7nkG3QhDuT4jv3-xfUfW-1" value="Collective" style="swimlane;whiteSpace=wrap;html=1;" vertex="1" parent="1">
          <mxGeometry x="360" width="360" height="320" as="geometry" />
        </mxCell>
        <mxCell id="7nkG3QhDuT4jv3-xfUfW-7" value="" style="ellipse;whiteSpace=wrap;html=1;aspect=fixed;fillColor=#000000;" vertex="1" parent="7nkG3QhDuT4jv3-xfUfW-1">
          <mxGeometry x="170" y="40" width="20" height="20" as="geometry" />
        </mxCell>
        <mxCell id="7nkG3QhDuT4jv3-xfUfW-9" value="" style="edgeStyle=orthogonalEdgeStyle;rounded=0;orthogonalLoop=1;jettySize=auto;html=1;exitX=0.5;exitY=1;exitDx=0;exitDy=0;" edge="1" parent="7nkG3QhDuT4jv3-xfUfW-1" source="7nkG3QhDuT4jv3-xfUfW-7">
          <mxGeometry relative="1" as="geometry">
            <mxPoint x="-170" y="70" as="sourcePoint" />
            <mxPoint x="180" y="120" as="targetPoint" />
          </mxGeometry>
        </mxCell>
        <mxCell id="7nkG3QhDuT4jv3-xfUfW-14" style="edgeStyle=orthogonalEdgeStyle;rounded=0;orthogonalLoop=1;jettySize=auto;html=1;" edge="1" parent="7nkG3QhDuT4jv3-xfUfW-1" source="7nkG3QhDuT4jv3-xfUfW-11" target="7nkG3QhDuT4jv3-xfUfW-13">
          <mxGeometry relative="1" as="geometry" />
        </mxCell>
        <mxCell id="7nkG3QhDuT4jv3-xfUfW-15" value="Yes" style="edgeLabel;html=1;align=center;verticalAlign=middle;resizable=0;points=[];" vertex="1" connectable="0" parent="7nkG3QhDuT4jv3-xfUfW-14">
          <mxGeometry x="0.3175" y="-2" relative="1" as="geometry">
            <mxPoint as="offset" />
          </mxGeometry>
        </mxCell>
        <mxCell id="7nkG3QhDuT4jv3-xfUfW-11" value="Does there exist a minority?" style="rhombus;whiteSpace=wrap;html=1;fillColor=#fff2cc;strokeColor=#d6b656;" vertex="1" parent="7nkG3QhDuT4jv3-xfUfW-1">
          <mxGeometry x="135" y="120" width="90" height="90" as="geometry" />
        </mxCell>
        <mxCell id="7nkG3QhDuT4jv3-xfUfW-16" style="edgeStyle=orthogonalEdgeStyle;rounded=0;orthogonalLoop=1;jettySize=auto;html=1;entryX=1;entryY=0.5;entryDx=0;entryDy=0;" edge="1" parent="7nkG3QhDuT4jv3-xfUfW-1" source="7nkG3QhDuT4jv3-xfUfW-13" target="7nkG3QhDuT4jv3-xfUfW-11">
          <mxGeometry relative="1" as="geometry">
            <Array as="points">
              <mxPoint x="245" y="255" />
              <mxPoint x="245" y="165" />
            </Array>
          </mxGeometry>
        </mxCell>
        <mxCell id="7nkG3QhDuT4jv3-xfUfW-13" value="Expel&amp;nbsp; the minority" style="rounded=1;whiteSpace=wrap;html=1;fillColor=#d5e8d4;strokeColor=#82b366;" vertex="1" parent="7nkG3QhDuT4jv3-xfUfW-1">
          <mxGeometry x="135" y="240" width="90" height="30" as="geometry" />
        </mxCell>
        <mxCell id="7nkG3QhDuT4jv3-xfUfW-2" value="Agent" style="swimlane;whiteSpace=wrap;html=1;" vertex="1" parent="1">
          <mxGeometry width="360" height="320" as="geometry" />
        </mxCell>
        <mxCell id="7nkG3QhDuT4jv3-xfUfW-18" style="edgeStyle=orthogonalEdgeStyle;rounded=0;orthogonalLoop=1;jettySize=auto;html=1;exitX=0.5;exitY=1;exitDx=0;exitDy=0;" edge="1" parent="7nkG3QhDuT4jv3-xfUfW-2" source="7nkG3QhDuT4jv3-xfUfW-3" target="7nkG3QhDuT4jv3-xfUfW-17">
          <mxGeometry relative="1" as="geometry" />
        </mxCell>
        <mxCell id="7nkG3QhDuT4jv3-xfUfW-3" value="" style="ellipse;whiteSpace=wrap;html=1;aspect=fixed;fillColor=#000000;" vertex="1" parent="7nkG3QhDuT4jv3-xfUfW-2">
          <mxGeometry x="170" y="40" width="20" height="20" as="geometry" />
        </mxCell>
        <mxCell id="7nkG3QhDuT4jv3-xfUfW-20" style="edgeStyle=orthogonalEdgeStyle;rounded=0;orthogonalLoop=1;jettySize=auto;html=1;exitX=0.5;exitY=1;exitDx=0;exitDy=0;" edge="1" parent="7nkG3QhDuT4jv3-xfUfW-2" source="7nkG3QhDuT4jv3-xfUfW-17" target="7nkG3QhDuT4jv3-xfUfW-19">
          <mxGeometry relative="1" as="geometry" />
        </mxCell>
        <mxCell id="7nkG3QhDuT4jv3-xfUfW-22" value="Yes" style="edgeLabel;html=1;align=center;verticalAlign=middle;resizable=0;points=[];" vertex="1" connectable="0" parent="7nkG3QhDuT4jv3-xfUfW-20">
          <mxGeometry x="-0.1151" y="-1" relative="1" as="geometry">
            <mxPoint as="offset" />
          </mxGeometry>
        </mxCell>
        <mxCell id="7nkG3QhDuT4jv3-xfUfW-17" value="Were you expelled?" style="rhombus;whiteSpace=wrap;html=1;fillColor=#fff2cc;strokeColor=#d6b656;" vertex="1" parent="7nkG3QhDuT4jv3-xfUfW-2">
          <mxGeometry x="135" y="100" width="90" height="90" as="geometry" />
        </mxCell>
        <mxCell id="7nkG3QhDuT4jv3-xfUfW-25" style="edgeStyle=orthogonalEdgeStyle;rounded=0;orthogonalLoop=1;jettySize=auto;html=1;entryX=1;entryY=0.5;entryDx=0;entryDy=0;" edge="1" parent="7nkG3QhDuT4jv3-xfUfW-2" source="7nkG3QhDuT4jv3-xfUfW-19" target="7nkG3QhDuT4jv3-xfUfW-17">
          <mxGeometry relative="1" as="geometry">
            <Array as="points">
              <mxPoint x="260" y="245" />
              <mxPoint x="260" y="145" />
            </Array>
          </mxGeometry>
        </mxCell>
        <mxCell id="7nkG3QhDuT4jv3-xfUfW-19" value="Join next nearest group" style="rounded=1;whiteSpace=wrap;html=1;fillColor=#d5e8d4;strokeColor=#82b366;" vertex="1" parent="7nkG3QhDuT4jv3-xfUfW-2">
          <mxGeometry x="135" y="230" width="90" height="30" as="geometry" />
        </mxCell>
      </root>
    </mxGraphModel>
  </diagram>
</mxfile>
